<mxfile host="app.diagrams.net" modified="2021-12-21T07:41:08.779Z" agent="5.0 (Macintosh)" etag="KXyfHzRl3kVyVM2RhkP-" version="16.0.0" type="github">
  <diagram id="8R22hfhirngRWqFtWf2z" name="Page-1">
    <mxGraphModel dx="1426" dy="792" grid="1" gridSize="10" guides="1" tooltips="1" connect="1" arrows="1" fold="1" page="1" pageScale="1" pageWidth="827" pageHeight="1169" math="0" shadow="0">
      <root>
        <mxCell id="0" />
        <mxCell id="1" parent="0" />
        <mxCell id="hJ7MZqbU1TOxmJs2J5Ed-1" value="X = 1" style="rounded=1;whiteSpace=wrap;html=1;" vertex="1" parent="1">
          <mxGeometry x="160" y="50" width="110" height="40" as="geometry" />
        </mxCell>
        <mxCell id="hJ7MZqbU1TOxmJs2J5Ed-2" value="节点 A" style="rounded=1;whiteSpace=wrap;html=1;fillColor=#333333;strokeColor=#F7F7F7;fontColor=#FFFFFF;fontSize=13;" vertex="1" parent="1">
          <mxGeometry x="120" y="55" width="60" height="30" as="geometry" />
        </mxCell>
        <mxCell id="hJ7MZqbU1TOxmJs2J5Ed-3" value="X = 1" style="rounded=1;whiteSpace=wrap;html=1;" vertex="1" parent="1">
          <mxGeometry x="160" y="220" width="110" height="40" as="geometry" />
        </mxCell>
        <mxCell id="hJ7MZqbU1TOxmJs2J5Ed-4" value="节点 B" style="rounded=1;whiteSpace=wrap;html=1;fillColor=#333333;strokeColor=#F7F7F7;fontColor=#FFFFFF;fontSize=13;" vertex="1" parent="1">
          <mxGeometry x="120" y="225" width="60" height="30" as="geometry" />
        </mxCell>
        <mxCell id="hJ7MZqbU1TOxmJs2J5Ed-5" value="Client" style="ellipse;whiteSpace=wrap;html=1;aspect=fixed;fontSize=13;fontColor=#FFFFFF;strokeColor=#F7F7F7;fillColor=#333333;" vertex="1" parent="1">
          <mxGeometry x="10" y="120" width="70" height="70" as="geometry" />
        </mxCell>
        <mxCell id="hJ7MZqbU1TOxmJs2J5Ed-7" value="X = 2" style="rounded=1;whiteSpace=wrap;html=1;" vertex="1" parent="1">
          <mxGeometry x="530" y="50" width="110" height="40" as="geometry" />
        </mxCell>
        <mxCell id="hJ7MZqbU1TOxmJs2J5Ed-8" value="节点 A" style="rounded=1;whiteSpace=wrap;html=1;fillColor=#333333;strokeColor=#F7F7F7;fontColor=#FFFFFF;fontSize=13;" vertex="1" parent="1">
          <mxGeometry x="490" y="55" width="60" height="30" as="geometry" />
        </mxCell>
        <mxCell id="hJ7MZqbU1TOxmJs2J5Ed-9" value="X = 1" style="rounded=1;whiteSpace=wrap;html=1;" vertex="1" parent="1">
          <mxGeometry x="530" y="220" width="110" height="40" as="geometry" />
        </mxCell>
        <mxCell id="hJ7MZqbU1TOxmJs2J5Ed-10" value="节点 B" style="rounded=1;whiteSpace=wrap;html=1;fillColor=#333333;strokeColor=#F7F7F7;fontColor=#FFFFFF;fontSize=13;" vertex="1" parent="1">
          <mxGeometry x="490" y="225" width="60" height="30" as="geometry" />
        </mxCell>
        <mxCell id="hJ7MZqbU1TOxmJs2J5Ed-11" value="Client" style="ellipse;whiteSpace=wrap;html=1;aspect=fixed;fontSize=13;fontColor=#FFFFFF;strokeColor=#F7F7F7;fillColor=#333333;" vertex="1" parent="1">
          <mxGeometry x="380" y="120" width="70" height="70" as="geometry" />
        </mxCell>
        <mxCell id="hJ7MZqbU1TOxmJs2J5Ed-12" value="1" style="ellipse;whiteSpace=wrap;html=1;aspect=fixed;fontSize=13;strokeColor=#82b366;fillColor=#d5e8d4;fontStyle=1" vertex="1" parent="1">
          <mxGeometry x="25" y="50" width="40" height="40" as="geometry" />
        </mxCell>
        <mxCell id="hJ7MZqbU1TOxmJs2J5Ed-13" value="2" style="ellipse;whiteSpace=wrap;html=1;aspect=fixed;fontSize=13;strokeColor=#82b366;fillColor=#d5e8d4;fontStyle=1" vertex="1" parent="1">
          <mxGeometry x="395" y="50" width="40" height="40" as="geometry" />
        </mxCell>
        <mxCell id="hJ7MZqbU1TOxmJs2J5Ed-14" value="X = 2" style="rounded=1;whiteSpace=wrap;html=1;" vertex="1" parent="1">
          <mxGeometry x="160" y="320" width="110" height="40" as="geometry" />
        </mxCell>
        <mxCell id="hJ7MZqbU1TOxmJs2J5Ed-15" value="节点 A" style="rounded=1;whiteSpace=wrap;html=1;fillColor=#333333;strokeColor=#F7F7F7;fontColor=#FFFFFF;fontSize=13;" vertex="1" parent="1">
          <mxGeometry x="120" y="325" width="60" height="30" as="geometry" />
        </mxCell>
        <mxCell id="hJ7MZqbU1TOxmJs2J5Ed-16" value="X = 1" style="rounded=1;whiteSpace=wrap;html=1;" vertex="1" parent="1">
          <mxGeometry x="160" y="490" width="110" height="40" as="geometry" />
        </mxCell>
        <mxCell id="hJ7MZqbU1TOxmJs2J5Ed-17" value="节点 B" style="rounded=1;whiteSpace=wrap;html=1;fillColor=#333333;strokeColor=#F7F7F7;fontColor=#FFFFFF;fontSize=13;" vertex="1" parent="1">
          <mxGeometry x="120" y="495" width="60" height="30" as="geometry" />
        </mxCell>
        <mxCell id="hJ7MZqbU1TOxmJs2J5Ed-18" value="Client" style="ellipse;whiteSpace=wrap;html=1;aspect=fixed;fontSize=13;fontColor=#FFFFFF;strokeColor=#F7F7F7;fillColor=#333333;" vertex="1" parent="1">
          <mxGeometry x="10" y="390" width="70" height="70" as="geometry" />
        </mxCell>
        <mxCell id="hJ7MZqbU1TOxmJs2J5Ed-24" value="3" style="ellipse;whiteSpace=wrap;html=1;aspect=fixed;fontSize=13;strokeColor=#82b366;fillColor=#d5e8d4;fontStyle=1" vertex="1" parent="1">
          <mxGeometry x="25" y="320" width="40" height="40" as="geometry" />
        </mxCell>
        <mxCell id="hJ7MZqbU1TOxmJs2J5Ed-28" value="" style="endArrow=classic;html=1;rounded=0;fontSize=13;fontColor=#FFFFFF;strokeWidth=2;exitX=0.986;exitY=0.6;exitDx=0;exitDy=0;exitPerimeter=0;entryX=0.5;entryY=1;entryDx=0;entryDy=0;" edge="1" parent="1" source="hJ7MZqbU1TOxmJs2J5Ed-5" target="hJ7MZqbU1TOxmJs2J5Ed-2">
          <mxGeometry width="50" height="50" relative="1" as="geometry">
            <mxPoint x="50" y="290" as="sourcePoint" />
            <mxPoint x="120" y="140" as="targetPoint" />
          </mxGeometry>
        </mxCell>
        <mxCell id="hJ7MZqbU1TOxmJs2J5Ed-29" value="SET x =2" style="edgeLabel;html=1;align=center;verticalAlign=middle;resizable=0;points=[];fontSize=14;fontColor=#FF3333;" vertex="1" connectable="0" parent="hJ7MZqbU1TOxmJs2J5Ed-28">
          <mxGeometry x="0.2185" y="3" relative="1" as="geometry">
            <mxPoint y="7" as="offset" />
          </mxGeometry>
        </mxCell>
        <mxCell id="hJ7MZqbU1TOxmJs2J5Ed-30" value="" style="endArrow=classic;html=1;rounded=0;fontSize=13;fontColor=#FF3333;strokeWidth=2;exitX=0.5;exitY=1;exitDx=0;exitDy=0;entryX=1;entryY=0.5;entryDx=0;entryDy=0;" edge="1" parent="1" source="hJ7MZqbU1TOxmJs2J5Ed-8" target="hJ7MZqbU1TOxmJs2J5Ed-11">
          <mxGeometry width="50" height="50" relative="1" as="geometry">
            <mxPoint x="410" y="440" as="sourcePoint" />
            <mxPoint x="460" y="390" as="targetPoint" />
          </mxGeometry>
        </mxCell>
        <mxCell id="hJ7MZqbU1TOxmJs2J5Ed-31" value="Success" style="edgeLabel;html=1;align=center;verticalAlign=middle;resizable=0;points=[];fontSize=14;fontColor=#FF3333;" vertex="1" connectable="0" parent="hJ7MZqbU1TOxmJs2J5Ed-30">
          <mxGeometry x="0.2714" y="4" relative="1" as="geometry">
            <mxPoint x="12" y="-12" as="offset" />
          </mxGeometry>
        </mxCell>
        <mxCell id="hJ7MZqbU1TOxmJs2J5Ed-32" value="step 1: GET x" style="endArrow=classic;html=1;rounded=0;fontSize=14;fontColor=#FF3333;strokeWidth=2;exitX=1;exitY=0.5;exitDx=0;exitDy=0;entryX=0.75;entryY=0;entryDx=0;entryDy=0;" edge="1" parent="1" source="hJ7MZqbU1TOxmJs2J5Ed-18" target="hJ7MZqbU1TOxmJs2J5Ed-17">
          <mxGeometry width="50" height="50" relative="1" as="geometry">
            <mxPoint x="300" y="470" as="sourcePoint" />
            <mxPoint x="350" y="420" as="targetPoint" />
          </mxGeometry>
        </mxCell>
        <mxCell id="hJ7MZqbU1TOxmJs2J5Ed-33" value="" style="endArrow=classic;html=1;rounded=0;fontSize=14;fontColor=#FF3333;strokeWidth=2;exitX=0;exitY=0.75;exitDx=0;exitDy=0;entryX=0.629;entryY=1;entryDx=0;entryDy=0;entryPerimeter=0;" edge="1" parent="1" source="hJ7MZqbU1TOxmJs2J5Ed-17" target="hJ7MZqbU1TOxmJs2J5Ed-18">
          <mxGeometry width="50" height="50" relative="1" as="geometry">
            <mxPoint x="70" y="630" as="sourcePoint" />
            <mxPoint x="120" y="580" as="targetPoint" />
          </mxGeometry>
        </mxCell>
        <mxCell id="hJ7MZqbU1TOxmJs2J5Ed-34" value="step 2: x=1" style="edgeLabel;html=1;align=center;verticalAlign=middle;resizable=0;points=[];fontSize=14;fontColor=#FF3333;" vertex="1" connectable="0" parent="hJ7MZqbU1TOxmJs2J5Ed-33">
          <mxGeometry x="0.1855" y="-3" relative="1" as="geometry">
            <mxPoint as="offset" />
          </mxGeometry>
        </mxCell>
        <mxCell id="hJ7MZqbU1TOxmJs2J5Ed-35" value="X = 2" style="rounded=1;whiteSpace=wrap;html=1;" vertex="1" parent="1">
          <mxGeometry x="175" y="680" width="110" height="40" as="geometry" />
        </mxCell>
        <mxCell id="hJ7MZqbU1TOxmJs2J5Ed-36" value="节点 A" style="rounded=1;whiteSpace=wrap;html=1;fillColor=#333333;strokeColor=#F7F7F7;fontColor=#FFFFFF;fontSize=13;" vertex="1" parent="1">
          <mxGeometry x="135" y="685" width="60" height="30" as="geometry" />
        </mxCell>
        <mxCell id="hJ7MZqbU1TOxmJs2J5Ed-37" value="X = 2" style="rounded=1;whiteSpace=wrap;html=1;" vertex="1" parent="1">
          <mxGeometry x="175" y="850" width="110" height="40" as="geometry" />
        </mxCell>
        <mxCell id="hJ7MZqbU1TOxmJs2J5Ed-38" value="节点 B" style="rounded=1;whiteSpace=wrap;html=1;fillColor=#333333;strokeColor=#F7F7F7;fontColor=#FFFFFF;fontSize=13;" vertex="1" parent="1">
          <mxGeometry x="135" y="855" width="60" height="30" as="geometry" />
        </mxCell>
        <mxCell id="hJ7MZqbU1TOxmJs2J5Ed-39" value="Client" style="ellipse;whiteSpace=wrap;html=1;aspect=fixed;fontSize=13;fontColor=#FFFFFF;strokeColor=#F7F7F7;fillColor=#333333;" vertex="1" parent="1">
          <mxGeometry x="25" y="750" width="70" height="70" as="geometry" />
        </mxCell>
        <mxCell id="hJ7MZqbU1TOxmJs2J5Ed-40" value="X = 2" style="rounded=1;whiteSpace=wrap;html=1;" vertex="1" parent="1">
          <mxGeometry x="600" y="680" width="110" height="40" as="geometry" />
        </mxCell>
        <mxCell id="hJ7MZqbU1TOxmJs2J5Ed-41" value="节点 A" style="rounded=1;whiteSpace=wrap;html=1;fillColor=#333333;strokeColor=#F7F7F7;fontColor=#FFFFFF;fontSize=13;" vertex="1" parent="1">
          <mxGeometry x="550" y="685" width="60" height="30" as="geometry" />
        </mxCell>
        <mxCell id="hJ7MZqbU1TOxmJs2J5Ed-42" value="X = 2" style="rounded=1;whiteSpace=wrap;html=1;" vertex="1" parent="1">
          <mxGeometry x="590" y="850" width="110" height="40" as="geometry" />
        </mxCell>
        <mxCell id="hJ7MZqbU1TOxmJs2J5Ed-43" value="节点 B" style="rounded=1;whiteSpace=wrap;html=1;fillColor=#333333;strokeColor=#F7F7F7;fontColor=#FFFFFF;fontSize=13;" vertex="1" parent="1">
          <mxGeometry x="550" y="855" width="60" height="30" as="geometry" />
        </mxCell>
        <mxCell id="hJ7MZqbU1TOxmJs2J5Ed-44" value="Client" style="ellipse;whiteSpace=wrap;html=1;aspect=fixed;fontSize=13;fontColor=#FFFFFF;strokeColor=#F7F7F7;fillColor=#333333;" vertex="1" parent="1">
          <mxGeometry x="395" y="750" width="70" height="70" as="geometry" />
        </mxCell>
        <mxCell id="hJ7MZqbU1TOxmJs2J5Ed-45" value="1" style="ellipse;whiteSpace=wrap;html=1;aspect=fixed;fontSize=13;strokeColor=#d6b656;fillColor=#fff2cc;fontStyle=1" vertex="1" parent="1">
          <mxGeometry x="40" y="680" width="40" height="40" as="geometry" />
        </mxCell>
        <mxCell id="hJ7MZqbU1TOxmJs2J5Ed-46" value="2" style="ellipse;whiteSpace=wrap;html=1;aspect=fixed;fontSize=13;strokeColor=#d6b656;fillColor=#fff2cc;fontStyle=1" vertex="1" parent="1">
          <mxGeometry x="410" y="680" width="40" height="40" as="geometry" />
        </mxCell>
        <mxCell id="hJ7MZqbU1TOxmJs2J5Ed-47" value="" style="endArrow=classic;html=1;rounded=0;fontSize=13;fontColor=#FFFFFF;strokeWidth=2;exitX=0.5;exitY=1;exitDx=0;exitDy=0;entryX=1;entryY=0.5;entryDx=0;entryDy=0;" edge="1" parent="1" source="hJ7MZqbU1TOxmJs2J5Ed-36" target="hJ7MZqbU1TOxmJs2J5Ed-39">
          <mxGeometry width="50" height="50" relative="1" as="geometry">
            <mxPoint x="65" y="920" as="sourcePoint" />
            <mxPoint x="94" y="880" as="targetPoint" />
          </mxGeometry>
        </mxCell>
        <mxCell id="hJ7MZqbU1TOxmJs2J5Ed-48" value="step 2: Success" style="edgeLabel;html=1;align=center;verticalAlign=middle;resizable=0;points=[];fontSize=14;fontColor=#FF3333;" vertex="1" connectable="0" parent="hJ7MZqbU1TOxmJs2J5Ed-47">
          <mxGeometry x="0.2185" y="3" relative="1" as="geometry">
            <mxPoint x="10" y="-10" as="offset" />
          </mxGeometry>
        </mxCell>
        <mxCell id="hJ7MZqbU1TOxmJs2J5Ed-49" value="" style="endArrow=classic;html=1;rounded=0;fontSize=13;fontColor=#FF3333;strokeWidth=2;exitX=0.5;exitY=1;exitDx=0;exitDy=0;entryX=1;entryY=0.5;entryDx=0;entryDy=0;" edge="1" parent="1" source="hJ7MZqbU1TOxmJs2J5Ed-41" target="hJ7MZqbU1TOxmJs2J5Ed-44">
          <mxGeometry width="50" height="50" relative="1" as="geometry">
            <mxPoint x="470" y="1070" as="sourcePoint" />
            <mxPoint x="510" y="785" as="targetPoint" />
          </mxGeometry>
        </mxCell>
        <mxCell id="hJ7MZqbU1TOxmJs2J5Ed-50" value="x = 2" style="edgeLabel;html=1;align=center;verticalAlign=middle;resizable=0;points=[];fontSize=14;fontColor=#FF3333;" vertex="1" connectable="0" parent="hJ7MZqbU1TOxmJs2J5Ed-49">
          <mxGeometry x="0.2714" y="4" relative="1" as="geometry">
            <mxPoint x="12" y="-12" as="offset" />
          </mxGeometry>
        </mxCell>
        <mxCell id="hJ7MZqbU1TOxmJs2J5Ed-51" value="" style="endArrow=classic;html=1;rounded=0;fontSize=14;fontColor=#FF3333;strokeWidth=2;exitX=0.5;exitY=1;exitDx=0;exitDy=0;" edge="1" parent="1" source="hJ7MZqbU1TOxmJs2J5Ed-35">
          <mxGeometry width="50" height="50" relative="1" as="geometry">
            <mxPoint x="240" y="820" as="sourcePoint" />
            <mxPoint x="230" y="840" as="targetPoint" />
          </mxGeometry>
        </mxCell>
        <mxCell id="hJ7MZqbU1TOxmJs2J5Ed-52" value="step 1: SET x =2" style="edgeLabel;html=1;align=center;verticalAlign=middle;resizable=0;points=[];fontSize=14;fontColor=#FF3333;" vertex="1" connectable="0" parent="hJ7MZqbU1TOxmJs2J5Ed-51">
          <mxGeometry x="-0.15" y="3" relative="1" as="geometry">
            <mxPoint x="-3" y="29" as="offset" />
          </mxGeometry>
        </mxCell>
        <mxCell id="hJ7MZqbU1TOxmJs2J5Ed-53" value="x = 2" style="endArrow=classic;html=1;rounded=0;fontSize=14;fontColor=#FF3333;strokeWidth=2;exitX=0;exitY=0.75;exitDx=0;exitDy=0;entryX=0.5;entryY=1;entryDx=0;entryDy=0;" edge="1" parent="1" source="hJ7MZqbU1TOxmJs2J5Ed-43" target="hJ7MZqbU1TOxmJs2J5Ed-44">
          <mxGeometry width="50" height="50" relative="1" as="geometry">
            <mxPoint x="390" y="1010" as="sourcePoint" />
            <mxPoint x="430" y="830" as="targetPoint" />
          </mxGeometry>
        </mxCell>
        <mxCell id="hJ7MZqbU1TOxmJs2J5Ed-54" value="GET x" style="endArrow=classic;html=1;rounded=0;fontSize=14;fontColor=#FF3333;strokeWidth=2;entryX=0;entryY=0.5;entryDx=0;entryDy=0;" edge="1" parent="1" source="hJ7MZqbU1TOxmJs2J5Ed-44" target="hJ7MZqbU1TOxmJs2J5Ed-41">
          <mxGeometry width="50" height="50" relative="1" as="geometry">
            <mxPoint x="510" y="610" as="sourcePoint" />
            <mxPoint x="510" y="700" as="targetPoint" />
          </mxGeometry>
        </mxCell>
        <mxCell id="hJ7MZqbU1TOxmJs2J5Ed-55" value="" style="endArrow=classic;html=1;rounded=0;fontSize=14;fontColor=#FF3333;strokeWidth=2;exitX=1;exitY=1;exitDx=0;exitDy=0;entryX=0.25;entryY=0;entryDx=0;entryDy=0;" edge="1" parent="1" source="hJ7MZqbU1TOxmJs2J5Ed-44" target="hJ7MZqbU1TOxmJs2J5Ed-43">
          <mxGeometry width="50" height="50" relative="1" as="geometry">
            <mxPoint x="640" y="790" as="sourcePoint" />
            <mxPoint x="690" y="740" as="targetPoint" />
          </mxGeometry>
        </mxCell>
        <mxCell id="hJ7MZqbU1TOxmJs2J5Ed-56" value="GET x" style="edgeLabel;html=1;align=center;verticalAlign=middle;resizable=0;points=[];fontSize=14;fontColor=#FF3333;" vertex="1" connectable="0" parent="hJ7MZqbU1TOxmJs2J5Ed-55">
          <mxGeometry x="-0.5452" y="2" relative="1" as="geometry">
            <mxPoint as="offset" />
          </mxGeometry>
        </mxCell>
        <mxCell id="hJ7MZqbU1TOxmJs2J5Ed-57" value="X = 2" style="rounded=1;whiteSpace=wrap;html=1;" vertex="1" parent="1">
          <mxGeometry x="645" y="360" width="110" height="40" as="geometry" />
        </mxCell>
        <mxCell id="hJ7MZqbU1TOxmJs2J5Ed-58" value="节点 A" style="rounded=1;whiteSpace=wrap;html=1;fillColor=#333333;strokeColor=#F7F7F7;fontColor=#FFFFFF;fontSize=13;" vertex="1" parent="1">
          <mxGeometry x="605" y="365" width="60" height="30" as="geometry" />
        </mxCell>
        <mxCell id="hJ7MZqbU1TOxmJs2J5Ed-59" value="X = 1" style="rounded=1;whiteSpace=wrap;html=1;" vertex="1" parent="1">
          <mxGeometry x="645" y="530" width="110" height="40" as="geometry" />
        </mxCell>
        <mxCell id="hJ7MZqbU1TOxmJs2J5Ed-60" value="节点 B" style="rounded=1;whiteSpace=wrap;html=1;fillColor=#333333;strokeColor=#F7F7F7;fontColor=#FFFFFF;fontSize=13;" vertex="1" parent="1">
          <mxGeometry x="605" y="535" width="60" height="30" as="geometry" />
        </mxCell>
        <mxCell id="hJ7MZqbU1TOxmJs2J5Ed-61" value="Client" style="ellipse;whiteSpace=wrap;html=1;aspect=fixed;fontSize=13;fontColor=#FFFFFF;strokeColor=#F7F7F7;fillColor=#333333;" vertex="1" parent="1">
          <mxGeometry x="450" y="430" width="70" height="70" as="geometry" />
        </mxCell>
        <mxCell id="hJ7MZqbU1TOxmJs2J5Ed-63" value="" style="endArrow=classic;html=1;rounded=0;fontSize=13;fontColor=#FF3333;strokeWidth=2;exitX=0.5;exitY=1;exitDx=0;exitDy=0;entryX=1;entryY=0.5;entryDx=0;entryDy=0;" edge="1" parent="1" source="hJ7MZqbU1TOxmJs2J5Ed-58" target="hJ7MZqbU1TOxmJs2J5Ed-61">
          <mxGeometry width="50" height="50" relative="1" as="geometry">
            <mxPoint x="525" y="750" as="sourcePoint" />
            <mxPoint x="565" y="465" as="targetPoint" />
          </mxGeometry>
        </mxCell>
        <mxCell id="hJ7MZqbU1TOxmJs2J5Ed-64" value="x = 2" style="edgeLabel;html=1;align=center;verticalAlign=middle;resizable=0;points=[];fontSize=14;fontColor=#FF3333;" vertex="1" connectable="0" parent="hJ7MZqbU1TOxmJs2J5Ed-63">
          <mxGeometry x="0.2714" y="4" relative="1" as="geometry">
            <mxPoint x="12" y="-12" as="offset" />
          </mxGeometry>
        </mxCell>
        <mxCell id="hJ7MZqbU1TOxmJs2J5Ed-65" value="x = 1" style="endArrow=classic;html=1;rounded=0;fontSize=14;fontColor=#FF3333;strokeWidth=2;exitX=0;exitY=0.75;exitDx=0;exitDy=0;entryX=0.5;entryY=1;entryDx=0;entryDy=0;" edge="1" parent="1" source="hJ7MZqbU1TOxmJs2J5Ed-60" target="hJ7MZqbU1TOxmJs2J5Ed-61">
          <mxGeometry width="50" height="50" relative="1" as="geometry">
            <mxPoint x="445" y="690" as="sourcePoint" />
            <mxPoint x="485" y="510" as="targetPoint" />
          </mxGeometry>
        </mxCell>
        <mxCell id="hJ7MZqbU1TOxmJs2J5Ed-66" value="GET x" style="endArrow=classic;html=1;rounded=0;fontSize=14;fontColor=#FF3333;strokeWidth=2;entryX=0;entryY=0.5;entryDx=0;entryDy=0;" edge="1" parent="1" source="hJ7MZqbU1TOxmJs2J5Ed-61" target="hJ7MZqbU1TOxmJs2J5Ed-58">
          <mxGeometry width="50" height="50" relative="1" as="geometry">
            <mxPoint x="565" y="290" as="sourcePoint" />
            <mxPoint x="565" y="380" as="targetPoint" />
          </mxGeometry>
        </mxCell>
        <mxCell id="hJ7MZqbU1TOxmJs2J5Ed-67" value="" style="endArrow=classic;html=1;rounded=0;fontSize=14;fontColor=#FF3333;strokeWidth=2;exitX=1;exitY=1;exitDx=0;exitDy=0;entryX=0.25;entryY=0;entryDx=0;entryDy=0;" edge="1" parent="1" source="hJ7MZqbU1TOxmJs2J5Ed-61" target="hJ7MZqbU1TOxmJs2J5Ed-60">
          <mxGeometry width="50" height="50" relative="1" as="geometry">
            <mxPoint x="695" y="470" as="sourcePoint" />
            <mxPoint x="745" y="420" as="targetPoint" />
          </mxGeometry>
        </mxCell>
        <mxCell id="hJ7MZqbU1TOxmJs2J5Ed-68" value="GET x" style="edgeLabel;html=1;align=center;verticalAlign=middle;resizable=0;points=[];fontSize=14;fontColor=#FF3333;" vertex="1" connectable="0" parent="hJ7MZqbU1TOxmJs2J5Ed-67">
          <mxGeometry x="-0.5452" y="2" relative="1" as="geometry">
            <mxPoint as="offset" />
          </mxGeometry>
        </mxCell>
        <mxCell id="hJ7MZqbU1TOxmJs2J5Ed-73" value="" style="endArrow=classic;html=1;rounded=0;fontSize=14;fontColor=#FF3333;strokeWidth=2;exitX=0.5;exitY=1;exitDx=0;exitDy=0;entryX=0.5;entryY=0;entryDx=0;entryDy=0;startArrow=none;" edge="1" parent="1" source="hJ7MZqbU1TOxmJs2J5Ed-69" target="hJ7MZqbU1TOxmJs2J5Ed-59">
          <mxGeometry width="50" height="50" relative="1" as="geometry">
            <mxPoint x="510" y="650" as="sourcePoint" />
            <mxPoint x="560" y="600" as="targetPoint" />
          </mxGeometry>
        </mxCell>
        <mxCell id="hJ7MZqbU1TOxmJs2J5Ed-69" value="" style="verticalLabelPosition=bottom;verticalAlign=top;html=1;shape=mxgraph.basic.x;fontSize=14;fontColor=#ffffff;strokeColor=#B20000;fillColor=#e51400;" vertex="1" parent="1">
          <mxGeometry x="677.5" y="450" width="45" height="40" as="geometry" />
        </mxCell>
        <mxCell id="hJ7MZqbU1TOxmJs2J5Ed-75" value="" style="endArrow=none;html=1;rounded=0;fontSize=14;fontColor=#FF3333;strokeWidth=2;exitX=0.5;exitY=1;exitDx=0;exitDy=0;entryX=0.5;entryY=0;entryDx=0;entryDy=0;" edge="1" parent="1" source="hJ7MZqbU1TOxmJs2J5Ed-57" target="hJ7MZqbU1TOxmJs2J5Ed-69">
          <mxGeometry width="50" height="50" relative="1" as="geometry">
            <mxPoint x="700" y="400" as="sourcePoint" />
            <mxPoint x="700" y="530" as="targetPoint" />
          </mxGeometry>
        </mxCell>
      </root>
    </mxGraphModel>
  </diagram>
</mxfile>
